<svg width="21" height="18" viewBox="0 0 21 18" fill="none" xmlns="http://www.w3.org/2000/svg">
<path fill-rule="evenodd" clip-rule="evenodd" d="M19.5 3.8584H15V3.1084C15 1.86576 13.9926 0.858398 12.75 0.858398H8.25C7.00736 0.858398 6 1.86576 6 3.1084V3.8584H1.5C0.671573 3.8584 0 4.52997 0 5.3584V15.8584C0 16.6868 0.671573 17.3584 1.5 17.3584H19.5C20.3284 17.3584 21 16.6868 21 15.8584V5.3584C21 4.52997 20.3284 3.8584 19.5 3.8584ZM7.5 3.1084C7.5 2.69418 7.83579 2.3584 8.25 2.3584H12.75C13.1642 2.3584 13.5 2.69418 13.5 3.1084V3.8584H7.5V3.1084ZM19.5 5.3584V8.3584H16.5V7.6084C16.5 7.19419 16.1642 6.8584 15.75 6.8584C15.3358 6.8584 15 7.19419 15 7.6084V8.3584H6V7.6084C6 7.19419 5.66421 6.8584 5.25 6.8584C4.83579 6.8584 4.5 7.19419 4.5 7.6084V8.3584H1.5V5.3584H19.5ZM19.5 15.8584H1.5V9.8584H4.5V10.6084C4.5 11.0226 4.83579 11.3584 5.25 11.3584C5.66421 11.3584 6 11.0226 6 10.6084V9.8584H15V10.6084C15 11.0226 15.3358 11.3584 15.75 11.3584C16.1642 11.3584 16.5 11.0226 16.5 10.6084V9.8584H19.5V15.8584Z" fill="#3B3B3B"/>
</svg>
