<svg width="19" height="20" viewBox="0 0 19 20" fill="none" xmlns="http://www.w3.org/2000/svg">
<path fill-rule="evenodd" clip-rule="evenodd" d="M17 10.6084H14V7.6084H15.5C16.3284 7.6084 17 6.93683 17 6.1084V1.6084C17 0.779971 16.3284 0.108398 15.5 0.108398H3.5C2.67157 0.108398 2 0.779971 2 1.6084V6.1084C2 6.93683 2.67157 7.6084 3.5 7.6084H5V10.6084H2C1.17157 10.6084 0.5 11.28 0.5 12.1084V13.6084C0.5 14.4368 1.17157 15.1084 2 15.1084H2.75V18.8584C2.75 19.2726 3.08579 19.6084 3.5 19.6084C3.91421 19.6084 4.25 19.2726 4.25 18.8584V15.1084H14.75V18.8584C14.75 19.2726 15.0858 19.6084 15.5 19.6084C15.9142 19.6084 16.25 19.2726 16.25 18.8584V15.1084H17C17.8284 15.1084 18.5 14.4368 18.5 13.6084V12.1084C18.5 11.28 17.8284 10.6084 17 10.6084ZM12.5 10.6084H6.5V7.6084H12.5V10.6084Z" fill="#3B3B3B"/>
</svg>
