<svg width="16" height="15" viewBox="0 0 16 15" fill="none" xmlns="http://www.w3.org/2000/svg">
<path d="M8 14.9287L6.84 13.9369C5.49333 12.7798 4.38 11.7816 3.5 10.9423C2.62 10.1031 1.92 9.34957 1.4 8.68174C0.88 8.01391 0.5168 7.4005 0.3104 6.84152C0.104 6.28253 0.000533333 5.71033 0 5.1249C0 3.92962 0.42 2.93144 1.26 2.13035C2.1 1.32926 3.14667 0.928711 4.4 0.928711C5.09333 0.928711 5.75333 1.06858 6.38 1.34833C7.00667 1.62808 7.54667 2.02226 8 2.53089C8.45333 2.02226 8.99333 1.62808 9.62 1.34833C10.2467 1.06858 10.9067 0.928711 11.6 0.928711C12.8533 0.928711 13.9 1.32926 14.74 2.13035C15.58 2.93144 16 3.92962 16 5.1249C16 5.70982 15.8968 6.28203 15.6904 6.84152C15.484 7.40101 15.1205 8.01442 14.6 8.68174C14.0795 9.34906 13.3795 10.1026 12.5 10.9423C11.6205 11.7821 10.5072 12.7803 9.16 13.9369L8 14.9287ZM8 12.8688C9.28 11.7752 10.3333 10.8376 11.16 10.0558C11.9867 9.27403 12.64 8.59374 13.12 8.01492C13.6 7.4361 13.9333 6.92086 14.12 6.4692C14.3067 6.01754 14.4 5.56944 14.4 5.1249C14.4 4.36195 14.1333 3.72617 13.6 3.21754C13.0667 2.70891 12.4 2.4546 11.6 2.4546C10.9733 2.4546 10.3933 2.62295 9.86 2.95966C9.32667 3.29638 8.96 3.72566 8.76 4.24751H7.24C7.04 3.72617 6.67333 3.29714 6.14 2.96043C5.60667 2.62372 5.02667 2.45511 4.4 2.4546C3.6 2.4546 2.93333 2.70891 2.4 3.21754C1.86667 3.72617 1.6 4.36195 1.6 5.1249C1.6 5.56995 1.69333 6.0183 1.88 6.46996C2.06667 6.92163 2.4 7.43661 2.88 8.01492C3.36 8.59323 4.01333 9.27352 4.84 10.0558C5.66667 10.8381 6.72 11.7757 8 12.8688Z" fill="#1C647C"/>
</svg>
