<svg xmlns="http://www.w3.org/2000/svg" width="828" height="139" viewBox="0 0 828 139" fill="none"><path d="M783.546 34V20.368H778.17V17.2H792.81V20.368H787.434V34H783.546ZM796.102 34V17.2H799.318L806.47 29.056H804.766L811.798 17.2H814.99L815.038 34H811.39L811.366 22.792H812.038L806.422 32.224H804.67L798.934 22.792H799.75V34H796.102Z" fill="black"></path><path d="M274.778 85.658C269.953 85.658 265.629 84.8747 261.806 83.308C257.984 81.7413 254.913 79.4227 252.594 76.352C250.338 73.2813 249.148 69.584 249.022 65.26H266.13C266.381 67.704 267.227 69.584 268.668 70.9C270.11 72.1533 271.99 72.78 274.308 72.78C276.69 72.78 278.57 72.2473 279.948 71.182C281.327 70.054 282.016 68.5187 282.016 66.576C282.016 64.9467 281.452 63.5993 280.324 62.534C279.259 61.4687 277.912 60.5913 276.282 59.902C274.716 59.2127 272.46 58.4293 269.514 57.552C265.253 56.236 261.775 54.92 259.08 53.604C256.386 52.288 254.067 50.3453 252.124 47.776C250.182 45.2067 249.21 41.854 249.21 37.718C249.21 31.5767 251.435 26.7827 255.884 23.336C260.334 19.8267 266.13 18.072 273.274 18.072C280.544 18.072 286.403 19.8267 290.852 23.336C295.302 26.7827 297.683 31.608 297.996 37.812H280.606C280.481 35.6813 279.698 34.0207 278.256 32.83C276.815 31.5767 274.966 30.95 272.71 30.95C270.768 30.95 269.201 31.4827 268.01 32.548C266.82 33.5507 266.224 35.0233 266.224 36.966C266.224 39.0967 267.227 40.7573 269.232 41.948C271.238 43.1387 274.371 44.4233 278.632 45.802C282.894 47.2433 286.34 48.622 288.972 49.938C291.667 51.254 293.986 53.1653 295.928 55.672C297.871 58.1787 298.842 61.406 298.842 65.354C298.842 69.114 297.871 72.5293 295.928 75.6C294.048 78.6707 291.291 81.1147 287.656 82.932C284.022 84.7493 279.729 85.658 274.778 85.658ZM359.588 57.928C359.588 59.432 359.494 60.9987 359.306 62.628H322.928C323.179 65.8867 324.213 68.3933 326.03 70.148C327.91 71.84 330.198 72.686 332.892 72.686C336.903 72.686 339.692 70.994 341.258 67.61H358.366C357.489 71.0567 355.891 74.1587 353.572 76.916C351.316 79.6733 348.465 81.8353 345.018 83.402C341.572 84.9687 337.718 85.752 333.456 85.752C328.318 85.752 323.743 84.6553 319.732 82.462C315.722 80.2687 312.588 77.1353 310.332 73.062C308.076 68.9887 306.948 64.226 306.948 58.774C306.948 53.322 308.045 48.5593 310.238 44.486C312.494 40.4127 315.628 37.2793 319.638 35.086C323.649 32.8927 328.255 31.796 333.456 31.796C338.532 31.796 343.044 32.8613 346.992 34.992C350.94 37.1227 354.011 40.162 356.204 44.11C358.46 48.058 359.588 52.664 359.588 57.928ZM343.138 53.698C343.138 50.9407 342.198 48.7473 340.318 47.118C338.438 45.4887 336.088 44.674 333.268 44.674C330.574 44.674 328.286 45.4573 326.406 47.024C324.589 48.5907 323.461 50.8153 323.022 53.698H343.138ZM436.406 31.984C442.923 31.984 448.093 33.958 451.916 37.906C455.801 41.854 457.744 47.3373 457.744 54.356V85H441.764V56.518C441.764 53.134 440.855 50.5333 439.038 48.716C437.283 46.836 434.839 45.896 431.706 45.896C428.573 45.896 426.097 46.836 424.28 48.716C422.525 50.5333 421.648 53.134 421.648 56.518V85H405.668V56.518C405.668 53.134 404.759 50.5333 402.942 48.716C401.187 46.836 398.743 45.896 395.61 45.896C392.477 45.896 390.001 46.836 388.184 48.716C386.429 50.5333 385.552 53.134 385.552 56.518V85H369.478V32.548H385.552V39.128C387.181 36.9347 389.312 35.2113 391.944 33.958C394.576 32.642 397.553 31.984 400.874 31.984C404.822 31.984 408.331 32.83 411.402 34.522C414.535 36.214 416.979 38.6267 418.734 41.76C420.551 38.8773 423.027 36.5273 426.16 34.71C429.293 32.8927 432.709 31.984 436.406 31.984ZM467.2 58.68C467.2 53.2907 468.203 48.5593 470.208 44.486C472.276 40.4127 475.065 37.2793 478.574 35.086C482.083 32.8927 486 31.796 490.324 31.796C494.021 31.796 497.249 32.548 500.006 34.052C502.826 35.556 504.988 37.53 506.492 39.974V32.548H522.566V85H506.492V77.574C504.925 80.018 502.732 81.992 499.912 83.496C497.155 85 493.927 85.752 490.23 85.752C485.969 85.752 482.083 84.6553 478.574 82.462C475.065 80.206 472.276 77.0413 470.208 72.968C468.203 68.832 467.2 64.0693 467.2 58.68ZM506.492 58.774C506.492 54.7633 505.364 51.5987 503.108 49.28C500.915 46.9613 498.22 45.802 495.024 45.802C491.828 45.802 489.102 46.9613 486.846 49.28C484.653 51.536 483.556 54.6693 483.556 58.68C483.556 62.6907 484.653 65.8867 486.846 68.268C489.102 70.5867 491.828 71.746 495.024 71.746C498.22 71.746 500.915 70.5867 503.108 68.268C505.364 65.9493 506.492 62.7847 506.492 58.774ZM602.533 31.984C609.05 31.984 614.22 33.958 618.043 37.906C621.928 41.854 623.871 47.3373 623.871 54.356V85H607.891V56.518C607.891 53.134 606.982 50.5333 605.165 48.716C603.41 46.836 600.966 45.896 597.833 45.896C594.699 45.896 592.224 46.836 590.407 48.716C588.652 50.5333 587.775 53.134 587.775 56.518V85H571.795V56.518C571.795 53.134 570.886 50.5333 569.069 48.716C567.314 46.836 564.87 45.896 561.737 45.896C558.603 45.896 556.128 46.836 554.311 48.716C552.556 50.5333 551.679 53.134 551.679 56.518V85H535.605V32.548H551.679V39.128C553.308 36.9347 555.439 35.2113 558.071 33.958C560.703 32.642 563.679 31.984 567.001 31.984C570.949 31.984 574.458 32.83 577.529 34.522C580.662 36.214 583.106 38.6267 584.861 41.76C586.678 38.8773 589.153 36.5273 592.287 34.71C595.42 32.8927 598.835 31.984 602.533 31.984ZM633.327 58.68C633.327 53.2907 634.329 48.5593 636.335 44.486C638.403 40.4127 641.191 37.2793 644.701 35.086C648.21 32.8927 652.127 31.796 656.451 31.796C660.148 31.796 663.375 32.548 666.133 34.052C668.953 35.556 671.115 37.53 672.619 39.974V32.548H688.693V85H672.619V77.574C671.052 80.018 668.859 81.992 666.039 83.496C663.281 85 660.054 85.752 656.357 85.752C652.095 85.752 648.21 84.6553 644.701 82.462C641.191 80.206 638.403 77.0413 636.335 72.968C634.329 68.832 633.327 64.0693 633.327 58.68ZM672.619 58.774C672.619 54.7633 671.491 51.5987 669.235 49.28C667.041 46.9613 664.347 45.802 661.151 45.802C657.955 45.802 655.229 46.9613 652.973 49.28C650.779 51.536 649.683 54.6693 649.683 58.68C649.683 62.6907 650.779 65.8867 652.973 68.268C655.229 70.5867 657.955 71.746 661.151 71.746C664.347 71.746 667.041 70.5867 669.235 68.268C671.491 65.9493 672.619 62.7847 672.619 58.774ZM717.805 41.29C719.685 38.4073 722.035 36.1513 724.855 34.522C727.675 32.83 730.809 31.984 734.255 31.984V48.998H729.837C725.827 48.998 722.819 49.8753 720.813 51.63C718.808 53.322 717.805 56.33 717.805 60.654V85H701.731V32.548H717.805V41.29ZM772.582 71.37V85H764.404C758.576 85 754.033 83.59 750.774 80.77C747.516 77.8873 745.886 73.2187 745.886 66.764V45.896H739.494V32.548H745.886V19.764H761.96V32.548H772.488V45.896H761.96V66.952C761.96 68.5187 762.336 69.6467 763.088 70.336C763.84 71.0253 765.094 71.37 766.848 71.37H772.582Z" fill="#1C647C"></path><line x1="249.074" y1="115.5" x2="397.074" y2="115.5" stroke="#1C647C"></line><path d="M441.194 102.12L433.114 130H429.034L422.554 107.56L415.834 130L411.794 130.04L403.994 102.12H407.874L413.954 125.76L420.674 102.12H424.754L431.154 125.68L437.274 102.12H441.194ZM465.778 118.2C465.778 118.893 465.738 119.627 465.658 120.4H448.138C448.271 122.56 449.004 124.253 450.338 125.48C451.698 126.68 453.338 127.28 455.258 127.28C456.831 127.28 458.138 126.92 459.178 126.2C460.244 125.453 460.991 124.467 461.418 123.24H465.338C464.751 125.347 463.578 127.067 461.818 128.4C460.058 129.707 457.871 130.36 455.258 130.36C453.178 130.36 451.311 129.893 449.658 128.96C448.031 128.027 446.751 126.707 445.818 125C444.884 123.267 444.418 121.267 444.418 119C444.418 116.733 444.871 114.747 445.778 113.04C446.684 111.333 447.951 110.027 449.578 109.12C451.231 108.187 453.124 107.72 455.258 107.72C457.338 107.72 459.178 108.173 460.778 109.08C462.378 109.987 463.604 111.24 464.458 112.84C465.338 114.413 465.778 116.2 465.778 118.2ZM462.018 117.44C462.018 116.053 461.711 114.867 461.098 113.88C460.484 112.867 459.644 112.107 458.578 111.6C457.538 111.067 456.378 110.8 455.098 110.8C453.258 110.8 451.684 111.387 450.378 112.56C449.098 113.733 448.364 115.36 448.178 117.44H462.018ZM493.326 107.68C494.98 107.68 496.473 108.04 497.806 108.76C499.14 109.453 500.18 110.507 500.926 111.92C501.7 113.333 502.086 115.053 502.086 117.08V130H498.486V117.6C498.486 115.413 497.94 113.747 496.846 112.6C495.753 111.427 494.26 110.84 492.366 110.84C490.446 110.84 488.913 111.44 487.766 112.64C486.646 113.84 486.086 115.587 486.086 117.88V130H482.446V100.4H486.086V111.2C486.806 110.08 487.793 109.213 489.046 108.6C490.326 107.987 491.753 107.68 493.326 107.68ZM507.272 118.96C507.272 116.72 507.726 114.76 508.632 113.08C509.539 111.373 510.779 110.053 512.352 109.12C513.952 108.187 515.726 107.72 517.672 107.72C519.592 107.72 521.259 108.133 522.672 108.96C524.086 109.787 525.139 110.827 525.832 112.08V108.08H529.512V130H525.832V125.92C525.112 127.2 524.032 128.267 522.592 129.12C521.179 129.947 519.526 130.36 517.632 130.36C515.686 130.36 513.926 129.88 512.352 128.92C510.779 127.96 509.539 126.613 508.632 124.88C507.726 123.147 507.272 121.173 507.272 118.96ZM525.832 119C525.832 117.347 525.499 115.907 524.832 114.68C524.166 113.453 523.259 112.52 522.112 111.88C520.992 111.213 519.752 110.88 518.392 110.88C517.032 110.88 515.792 111.2 514.672 111.84C513.552 112.48 512.659 113.413 511.992 114.64C511.326 115.867 510.992 117.307 510.992 118.96C510.992 120.64 511.326 122.107 511.992 123.36C512.659 124.587 513.552 125.533 514.672 126.2C515.792 126.84 517.032 127.16 518.392 127.16C519.752 127.16 520.992 126.84 522.112 126.2C523.259 125.533 524.166 124.587 524.832 123.36C525.499 122.107 525.832 120.653 525.832 119ZM544.424 126.64L551.224 108.08H555.104L546.504 130H542.264L533.664 108.08H537.584L544.424 126.64ZM579.285 118.2C579.285 118.893 579.245 119.627 579.165 120.4H561.645C561.779 122.56 562.512 124.253 563.845 125.48C565.205 126.68 566.845 127.28 568.765 127.28C570.339 127.28 571.645 126.92 572.685 126.2C573.752 125.453 574.499 124.467 574.925 123.24H578.845C578.259 125.347 577.085 127.067 575.325 128.4C573.565 129.707 571.379 130.36 568.765 130.36C566.685 130.36 564.819 129.893 563.165 128.96C561.539 128.027 560.259 126.707 559.325 125C558.392 123.267 557.925 121.267 557.925 119C557.925 116.733 558.379 114.747 559.285 113.04C560.192 111.333 561.459 110.027 563.085 109.12C564.739 108.187 566.632 107.72 568.765 107.72C570.845 107.72 572.685 108.173 574.285 109.08C575.885 109.987 577.112 111.24 577.965 112.84C578.845 114.413 579.285 116.2 579.285 118.2ZM575.525 117.44C575.525 116.053 575.219 114.867 574.605 113.88C573.992 112.867 573.152 112.107 572.085 111.6C571.045 111.067 569.885 110.8 568.605 110.8C566.765 110.8 565.192 111.387 563.885 112.56C562.605 113.733 561.872 115.36 561.685 117.44H575.525ZM597.834 104.52C597.141 104.52 596.554 104.28 596.074 103.8C595.594 103.32 595.354 102.733 595.354 102.04C595.354 101.347 595.594 100.76 596.074 100.28C596.554 99.8 597.141 99.56 597.834 99.56C598.501 99.56 599.061 99.8 599.514 100.28C599.994 100.76 600.234 101.347 600.234 102.04C600.234 102.733 599.994 103.32 599.514 103.8C599.061 104.28 598.501 104.52 597.834 104.52ZM599.594 108.08V130H595.954V108.08H599.594ZM610.838 111.08V124C610.838 125.067 611.065 125.827 611.518 126.28C611.971 126.707 612.758 126.92 613.878 126.92H616.558V130H613.278C611.251 130 609.731 129.533 608.718 128.6C607.705 127.667 607.198 126.133 607.198 124V111.08H604.358V108.08H607.198V102.56H610.838V108.08H616.558V111.08H610.838Z" fill="#1C647C"></path><line x1="624.074" y1="115.5" x2="772.074" y2="115.5" stroke="#1C647C"></line><path fill-rule="evenodd" clip-rule="evenodd" d="M120.447 104.383C125.63 107.23 130.469 110.026 134.782 112.618C136.632 113.731 138.764 115.113 141.139 116.652C155.061 125.675 177.332 140.109 200.188 137.414C219.025 135.192 235.075 123.059 235.075 97.806C233.282 54.709 201.407 51.6208 176.393 52.5853C161.725 53.1509 142.542 62.2033 119.842 75.8223C90.6662 61.2394 51.7891 46.355 29.3332 55.9431C8.8221 64.7007 1.78241 80.4059 0.196362 95.2209C-1.38969 110.036 6.59358 130.359 25.5565 136.065C57.4003 145.646 89.2816 124.75 112.226 109.711C115.114 107.818 117.86 106.018 120.447 104.383ZM22.1934 96.1701C22.1881 137.129 85.6313 98.7511 93.5648 91.5742C93.5648 91.5742 22.1986 55.2116 22.1934 96.1701ZM212.898 96.2365C212.903 132.382 164.562 104.731 146.806 94.575C144.442 93.2228 142.62 92.1807 141.527 91.6406C141.527 91.6406 212.893 55.278 212.898 96.2365Z" fill="url(#paint0_linear_853_279)"></path><path d="M110.398 75.598L100.092 80.2766C100.092 80.2766 64.4991 56.7719 42.0165 60.5618C10.5014 65.8744 1.18555 89.9615 1.18555 89.9615C1.18555 89.9615 1.18566 64.6029 31.5115 54.7272C65.0087 43.8186 110.398 75.598 110.398 75.598Z" fill="url(#paint1_linear_853_279)"></path><path d="M130.614 96.4335L141.713 91.2718C141.713 91.2718 179.177 116.858 201.574 113.716C213.467 112.047 212.872 96.4339 212.872 96.4339C212.872 96.4339 224.368 133.466 171.843 118.204C152.096 112.467 130.614 96.4335 130.614 96.4335Z" fill="url(#paint2_linear_853_279)"></path><path d="M233.684 110.351C233.684 110.351 244.988 61.8499 199.593 53.7954C190.211 52.1307 169.862 49.0823 145.477 61.4099C116.432 75.0768 81.5955 102.909 57.6702 111.009C18.4284 124.295 22.389 96.1965 22.389 96.1965C22.389 96.1965 14.6589 127.617 55.0935 120.884C78.8451 116.929 104.414 94.5454 130.611 80.0376C155.877 66.0454 164.746 61.4099 188.097 61.4099C202.17 61.4099 211.096 65.0023 220.799 75.9947C229.9 86.3044 233.684 110.351 233.684 110.351Z" fill="url(#paint3_linear_853_279)"></path><path d="M112.58 90.6005C103.453 96.428 89.5879 106.086 89.5879 106.086L116.742 88.8051L145.285 72.1973C145.285 72.1973 125.008 82.666 112.58 90.6005Z" fill="#D9D9D9"></path><circle cx="117.406" cy="25.5" r="25.5" fill="url(#paint4_linear_853_279)"></circle><defs><linearGradient id="paint0_linear_853_279" x1="1.35304e-06" y1="95.5398" x2="187.264" y2="0.917907" gradientUnits="userSpaceOnUse"><stop stop-color="#FFBE1F"></stop><stop offset="0.439" stop-color="#EF551D"></stop><stop offset="0.524" stop-color="#EF4426"></stop><stop offset="1" stop-color="#F67E03"></stop></linearGradient><linearGradient id="paint1_linear_853_279" x1="-20.5802" y1="85.9509" x2="71.1392" y2="26.9897" gradientUnits="userSpaceOnUse"><stop stop-color="#F48C0D"></stop><stop offset="0.554329" stop-color="#FA7713"></stop><stop offset="1" stop-color="#F04526"></stop></linearGradient><linearGradient id="paint2_linear_853_279" x1="213.938" y1="135.927" x2="129.382" y2="134.052" gradientUnits="userSpaceOnUse"><stop stop-color="#E96525"></stop><stop offset="1" stop-color="#E03027"></stop></linearGradient><linearGradient id="paint3_linear_853_279" x1="228.333" y1="26.8638" x2="13.6479" y2="21.2889" gradientUnits="userSpaceOnUse"><stop stop-color="#F57109"></stop><stop offset="0.167196" stop-color="#E75A20"></stop><stop offset="0.540278" stop-color="#E74D28"></stop><stop offset="1" stop-color="#F87F11"></stop></linearGradient><linearGradient id="paint4_linear_853_279" x1="117.592" y1="-17.4964" x2="158.753" y2="2.86409" gradientUnits="userSpaceOnUse"><stop stop-color="#FFB205"></stop><stop offset="1" stop-color="#E84F27"></stop></linearGradient></defs></svg>