<svg width="25" height="25" viewBox="0 0 25 25" fill="none" xmlns="http://www.w3.org/2000/svg">
<path d="M14 22.9287C12.2 22.9287 10.6667 22.2954 9.4 21.0287C8.13333 19.762 7.5 18.2287 7.5 16.4287V15.8537C6.06667 15.6204 4.875 14.9494 3.925 13.8407C2.975 12.732 2.5 11.428 2.5 9.92871V3.92871H5.5V2.92871H7.5V6.92871H5.5V5.92871H4.5V9.92871C4.5 11.0287 4.89167 11.9704 5.675 12.7537C6.45833 13.537 7.4 13.9287 8.5 13.9287C9.6 13.9287 10.5417 13.537 11.325 12.7537C12.1083 11.9704 12.5 11.0287 12.5 9.92871V5.92871H11.5V6.92871H9.5V2.92871H11.5V3.92871H14.5V9.92871C14.5 11.4287 14.025 12.733 13.075 13.8417C12.125 14.9504 10.9333 15.621 9.5 15.8537V16.4287C9.5 17.6787 9.93767 18.7414 10.813 19.6167C11.6883 20.492 12.7507 20.9294 14 20.9287C15.2493 20.928 16.312 20.4907 17.188 19.6167C18.064 18.7427 18.5013 17.68 18.5 16.4287V14.7537C17.9167 14.5537 17.4377 14.1954 17.063 13.6787C16.6883 13.162 16.5007 12.5787 16.5 11.9287C16.5 11.0954 16.7917 10.387 17.375 9.80371C17.9583 9.22038 18.6667 8.92871 19.5 8.92871C20.3333 8.92871 21.0417 9.22038 21.625 9.80371C22.2083 10.387 22.5 11.0954 22.5 11.9287C22.5 12.5787 22.3127 13.162 21.938 13.6787C21.5633 14.1954 21.084 14.5537 20.5 14.7537V16.4287C20.5 18.2287 19.8667 19.762 18.6 21.0287C17.3333 22.2954 15.8 22.9287 14 22.9287Z" fill="white"/>
</svg>
