<svg width="25" height="25" viewBox="0 0 25 25" fill="none" xmlns="http://www.w3.org/2000/svg">
<g clip-path="url(#clip0_150_2276)">
<path d="M7.35869 5.51093C7.37047 5.23988 7.47347 5.00724 7.66769 4.81302C7.86191 4.6188 8.09479 4.51556 8.36632 4.50331L12.3261 4.50331L12.3261 2.98303H11.9018C11.619 2.98303 11.3805 2.88592 11.1863 2.6917C10.992 2.49748 10.8947 2.25871 10.8942 1.9754C10.906 1.70434 11.009 1.4717 11.2032 1.27749C11.3974 1.08327 11.6244 0.985922 11.8842 0.98545H14.7126C14.9954 0.98545 15.2342 1.0828 15.4289 1.27749C15.6236 1.47218 15.7207 1.71071 15.7202 1.99308C15.732 2.26413 15.6377 2.49984 15.4374 2.70018C15.237 2.90053 15.0013 2.99481 14.7303 2.98303H14.306V4.50331L18.2658 4.50331C18.5487 4.50331 18.7874 4.60065 18.9821 4.79534C19.1768 4.99003 19.2739 5.22856 19.2734 5.51093C19.273 5.7933 19.1756 6.03207 18.9814 6.22723C18.7872 6.42239 18.5487 6.5195 18.2658 6.51856L17.3289 6.50088V8.69291L13.3514 8.67524C13.0804 8.68702 12.8475 8.79026 12.6528 8.98495C12.4581 9.17964 12.3551 9.41228 12.3438 9.68286C12.3438 9.96571 12.4411 10.2045 12.6358 10.3992C12.8305 10.5939 13.069 10.691 13.3514 10.6905L17.3289 10.6728L17.3466 12.8118L13.3514 12.8118C13.0686 12.8118 12.8298 12.9092 12.6351 13.1038C12.4404 13.2985 12.3433 13.5371 12.3438 13.8194C12.3438 14.0787 12.444 14.3029 12.6443 14.4919C12.8447 14.6809 13.0804 14.7809 13.3514 14.7917L17.3289 14.774V16.9307C17.3289 17.4728 17.1314 17.9414 16.7363 18.3364C16.3413 18.7315 15.873 18.9288 15.3313 18.9283L14.3237 18.946L14.3414 25.6104L12.3261 23.5952L12.3261 18.9283L11.3185 18.946C10.7764 18.946 10.308 18.7487 9.91346 18.3541C9.5189 17.9595 9.32138 17.491 9.32091 16.9484V6.51856H8.36631C8.09526 6.50678 7.86262 6.40377 7.6684 6.20956C7.47418 6.01534 7.37094 5.78246 7.35869 5.51093Z" fill="#A0A6B1"/>
</g>
<defs>
<clipPath id="clip0_150_2276">
<rect width="24" height="24" fill="white" transform="translate(0.5 0.928711)"/>
</clipPath>
</defs>
</svg>
