<svg width="25" height="25" viewBox="0 0 25 25" fill="none" xmlns="http://www.w3.org/2000/svg">
<g clip-path="url(#clip0_150_2280)">
<path d="M6.49715 17.9275V7.92898C6.49891 6.33734 7.13197 4.81139 8.25743 3.68593C9.3829 2.56046 10.9088 1.92741 12.5005 1.92564C15.8097 1.92564 18.4968 4.61265 18.5038 7.92898V17.9275C18.4968 21.2438 15.8097 23.9308 12.5005 23.9308C10.9088 23.929 9.3829 23.296 8.25743 22.1705C7.13197 21.0451 6.49891 19.5191 6.49715 17.9275ZM8.50533 17.9275C8.50256 18.6296 8.68557 19.3199 9.03578 19.9284C9.38598 20.5369 9.89093 21.042 10.4994 21.3923L10.5064 12.9282H16.5027L16.4956 7.92898C16.4976 7.40377 16.3957 6.88335 16.1956 6.39773C15.9955 5.91211 15.7013 5.47089 15.33 5.09951C14.9586 4.72813 14.5174 4.43392 14.0317 4.23386C13.5461 4.03379 13.0257 3.93182 12.5005 3.93382C11.9753 3.93182 11.4549 4.03379 10.9692 4.23386C10.4836 4.43392 10.0424 4.72813 9.67102 5.09951C9.29963 5.47089 9.00543 5.91211 8.80536 6.39773C8.6053 6.88335 8.50333 7.40377 8.50533 7.92898V17.9275Z" fill="#A0A6B1"/>
</g>
<defs>
<clipPath id="clip0_150_2280">
<rect width="24" height="24" fill="white" transform="translate(0.5 0.928711)"/>
</clipPath>
</defs>
</svg>
