<svg width="21" height="20" viewBox="0 0 21 20" fill="none" xmlns="http://www.w3.org/2000/svg">
<path fill-rule="evenodd" clip-rule="evenodd" d="M10.5 5.4292C8.01472 5.4292 6 7.44392 6 9.9292C6 12.4145 8.01472 14.4292 10.5 14.4292C12.9853 14.4292 15 12.4145 15 9.9292C14.9974 7.44499 12.9842 5.43178 10.5 5.4292ZM10.5 12.9292C8.84315 12.9292 7.5 11.5861 7.5 9.9292C7.5 8.27234 8.84315 6.9292 10.5 6.9292C12.1569 6.9292 13.5 8.27234 13.5 9.9292C13.5 11.5861 12.1569 12.9292 10.5 12.9292ZM18.75 10.1317C18.7537 9.9967 18.7537 9.8617 18.75 9.7267L20.1488 7.9792C20.2975 7.79313 20.349 7.54747 20.2875 7.31732C20.0582 6.45539 19.7152 5.62781 19.2675 4.85639C19.1486 4.65169 18.9401 4.51512 18.705 4.48795L16.4813 4.24045C16.3888 4.14295 16.295 4.0492 16.2 3.9592L15.9375 1.72982C15.9101 1.49451 15.7732 1.28596 15.5681 1.16732C14.7964 0.720462 13.9689 0.377794 13.1072 0.148262C12.8769 0.0870357 12.6312 0.138886 12.4453 0.287949L10.7025 1.6792C10.5675 1.6792 10.4325 1.6792 10.2975 1.6792L8.55 0.283262C8.36393 0.134525 8.11827 0.0830262 7.88813 0.144512C7.02633 0.374225 6.1988 0.717215 5.42719 1.16451C5.22249 1.28337 5.08592 1.49188 5.05875 1.72701L4.81125 3.95451C4.71375 4.04764 4.62 4.14139 4.53 4.23576L2.30063 4.4917C2.06531 4.51908 1.85677 4.65602 1.73813 4.86107C1.29126 5.63279 0.948595 6.4603 0.719063 7.32201C0.657836 7.5523 0.709687 7.79798 0.85875 7.98389L2.25 9.7267C2.25 9.8617 2.25 9.9967 2.25 10.1317L0.854063 11.8792C0.705326 12.0653 0.653827 12.3109 0.715312 12.5411C0.944615 13.403 1.28763 14.2306 1.73531 15.002C1.85417 15.2067 2.06268 15.3433 2.29781 15.3704L4.52156 15.6179C4.61469 15.7154 4.70844 15.8092 4.80281 15.8992L5.0625 18.1286C5.08988 18.3639 5.22682 18.5724 5.43188 18.6911C6.20359 19.1379 7.0311 19.4806 7.89281 19.7101C8.1231 19.7714 8.36878 19.7195 8.55469 19.5704L10.2975 18.1792C10.4325 18.1829 10.5675 18.1829 10.7025 18.1792L12.45 19.5779C12.6361 19.7267 12.8817 19.7782 13.1119 19.7167C13.9738 19.4874 14.8014 19.1444 15.5728 18.6967C15.7775 18.5778 15.9141 18.3693 15.9412 18.1342L16.1887 15.9104C16.2862 15.8179 16.38 15.7242 16.47 15.6292L18.6994 15.3667C18.9347 15.3393 19.1432 15.2024 19.2619 14.9973C19.7087 14.2256 20.0514 13.3981 20.2809 12.5364C20.3422 12.3061 20.2903 12.0604 20.1413 11.8745L18.75 10.1317ZM17.2406 9.52232C17.2566 9.79334 17.2566 10.0651 17.2406 10.3361C17.2295 10.5216 17.2876 10.7047 17.4037 10.8498L18.7341 12.512C18.5814 12.9971 18.386 13.4677 18.15 13.9183L16.0312 14.1583C15.8467 14.1787 15.6764 14.2669 15.5531 14.4058C15.3727 14.6087 15.1805 14.8009 14.9775 14.9814C14.8387 15.1046 14.7505 15.275 14.73 15.4595L14.4947 17.5764C14.0442 17.8125 13.5736 18.0079 13.0884 18.1604L11.4253 16.8301C11.2922 16.7238 11.1269 16.6659 10.9566 16.6661H10.9116C10.6405 16.682 10.3688 16.682 10.0978 16.6661C9.91226 16.6549 9.72918 16.713 9.58406 16.8292L7.91719 18.1604C7.43206 18.0078 6.96146 17.8123 6.51094 17.5764L6.27094 15.4604C6.25046 15.2759 6.16227 15.1056 6.02344 14.9823C5.82048 14.8019 5.62827 14.6097 5.44781 14.4067C5.32456 14.2679 5.1542 14.1797 4.96969 14.1592L2.85281 13.9229C2.61674 13.4725 2.42128 13.0019 2.26875 12.5167L3.59906 10.8536C3.71522 10.7085 3.77336 10.5254 3.76219 10.3398C3.74625 10.0688 3.74625 9.79709 3.76219 9.52607C3.77336 9.34053 3.71522 9.15744 3.59906 9.01232L2.26875 7.34639C2.4214 6.86126 2.61685 6.39066 2.85281 5.94014L4.96875 5.70014C5.15326 5.67966 5.32362 5.59147 5.44688 5.45264C5.62733 5.24968 5.81954 5.05747 6.0225 4.87701C6.16188 4.75368 6.25043 4.58293 6.27094 4.39795L6.50625 2.28201C6.95672 2.04594 7.42733 1.85048 7.9125 1.69795L9.57563 3.02826C9.72074 3.14442 9.90383 3.20256 10.0894 3.19139C10.3604 3.17545 10.6321 3.17545 10.9031 3.19139C11.0887 3.20256 11.2718 3.14442 11.4169 3.02826L13.0828 1.69795C13.5679 1.8506 14.0385 2.04605 14.4891 2.28201L14.7291 4.39795C14.7495 4.58246 14.8377 4.75282 14.9766 4.87607C15.1795 5.05653 15.3717 5.24874 15.5522 5.4517C15.6754 5.59053 15.8458 5.67872 16.0303 5.6992L18.1472 5.93451C18.3833 6.38498 18.5787 6.85559 18.7313 7.34076L17.4009 9.00389C17.2837 9.15023 17.2255 9.3352 17.2378 9.52232H17.2406Z" fill="#3B3B3B"/>
</svg>
