<svg width="21" height="18" viewBox="0 0 21 18" fill="none" xmlns="http://www.w3.org/2000/svg">
<path fill-rule="evenodd" clip-rule="evenodd" d="M18.75 0.679199H2.25C1.42157 0.679199 0.75 1.35077 0.75 2.1792V15.6792C0.75 16.5076 1.42157 17.1792 2.25 17.1792H18.75C19.5784 17.1792 20.25 16.5076 20.25 15.6792V2.1792C20.25 1.35077 19.5784 0.679199 18.75 0.679199ZM18.75 15.6792H2.25V2.1792H18.75V15.6792ZM15.1922 5.14732C13.9303 4.20045 12.2634 3.6792 10.5 3.6792C8.73656 3.6792 7.06969 4.20045 5.8125 5.14732C4.48031 6.14201 3.75 7.48545 3.75 8.9292C3.75 10.3729 4.48031 11.7164 5.8125 12.7111C7.06969 13.6579 8.73656 14.1792 10.5 14.1792C12.2634 14.1792 13.9303 13.6579 15.1922 12.7111C16.5197 11.7164 17.25 10.3729 17.25 8.9292C17.25 7.48545 16.5197 6.14201 15.1922 5.14732ZM10.5 12.6792C7.605 12.6792 5.25 10.9973 5.25 8.9292C5.25 6.86107 7.605 5.1792 10.5 5.1792C13.395 5.1792 15.75 6.86107 15.75 8.9292C15.75 10.9973 13.395 12.6792 10.5 12.6792Z" fill="#3B3B3B"/>
</svg>
